<svg version="1.1" width="50.97" height="78" viewBox="0 0 50.97 78" xmlns="http://www.w3.org/2000/svg" xmlns:xlink="http://www.w3.org/1999/xlink" overflow="hidden"><defs></defs><g><g><path d=" M 1.99 77.77 L 0.13 77.77 C 0.06 77.77 0 77.71 0 77.63 L 0 66.33 C 0 66.26 0.06 66.2 0.13 66.2 L 1.98 66.2 C 2.05 66.2 2.11 66.26 2.11 66.33 L 2.11 77.63 C 2.12 77.71 2.06 77.77 1.99 77.77 Z" fill="#83ACBC"/><path d=" M 35.23 75.26 L 35.23 66.4 C 35.23 66.29 35.14 66.21 35.04 66.21 L 33.31 66.21 C 33.2 66.21 33.12 66.3 33.12 66.4 L 33.12 75.65 C 33.12 76.82 34.07 77.77 35.24 77.77 L 38.32 77.77 C 38.43 77.77 38.51 77.68 38.51 77.58 L 38.51 75.85 C 38.51 75.74 38.42 75.66 38.32 75.66 L 35.62 75.66 C 35.41 75.65 35.23 75.48 35.23 75.26 Z" fill="#83ACBC"/><path d=" M 33.11 71.99 L 33.11 69.87 L 38.37 69.87 C 38.44 69.87 38.5 69.93 38.5 70 L 38.5 71.85 C 38.5 71.92 38.44 71.98 38.37 71.98 L 33.11 71.98 Z" fill="#83ACBC"/><path d=" M 12.9 77.77 L 11.05 77.77 C 10.98 77.77 10.92 77.71 10.92 77.64 L 10.92 70 C 10.92 69.93 10.98 69.87 11.05 69.87 L 12.9 69.87 C 12.97 69.87 13.03 69.93 13.03 70 L 13.03 77.63 C 13.03 77.71 12.97 77.77 12.9 77.77 Z" fill="#83ACBC"/><circle cx="11.97" cy="67.55" r="1.35" fill="#83ACBC"/><path d=" M 45.77 67.59 C 42.9 67.59 40.57 69.92 40.57 72.79 C 40.57 75.66 42.9 77.99 45.77 77.99 C 48.64 77.99 50.97 75.66 50.97 72.79 C 50.97 69.92 48.65 67.59 45.77 67.59 Z M 45.77 75.88 C 44.07 75.88 42.69 74.5 42.69 72.8 C 42.69 71.1 44.07 69.72 45.77 69.72 C 47.47 69.72 48.85 71.1 48.85 72.8 C 48.85 74.5 47.47 75.88 45.77 75.88 Z" fill="#83ACBC"/><path d=" M 8.25 69.87 L 5.9 69.87 C 5.85 69.87 5.8 69.89 5.76 69.93 L 2.86 73.03 C 2.44 73.47 2.44 74.17 2.86 74.61 L 5.76 77.71 C 5.8 77.75 5.85 77.77 5.9 77.77 L 8.25 77.77 C 8.33 77.77 8.38 77.67 8.32 77.61 L 5.02 74.08 C 4.88 73.93 4.88 73.7 5.02 73.55 L 8.32 70.02 C 8.38 69.97 8.34 69.87 8.25 69.87 Z" fill="#83ACBC"/><path d=" M 18.72 77.77 L 16.87 77.77 C 16.8 77.77 16.74 77.71 16.74 77.64 L 16.74 66.34 C 16.74 66.27 16.8 66.21 16.87 66.21 L 18.72 66.21 C 18.79 66.21 18.85 66.27 18.85 66.34 L 18.85 77.64 C 18.85 77.71 18.79 77.77 18.72 77.77 Z" fill="#83ACBC"/><path d=" M 29.63 77.77 L 27.78 77.77 C 27.71 77.77 27.65 77.71 27.65 77.64 L 27.65 70 C 27.65 69.93 27.71 69.87 27.78 69.87 L 29.63 69.87 C 29.7 69.87 29.76 69.93 29.76 70 L 29.76 77.63 C 29.76 77.71 29.7 77.77 29.63 77.77 Z" fill="#83ACBC"/><circle cx="28.7" cy="67.55" r="1.35" fill="#83ACBC"/><path d=" M 24.98 69.87 L 22.63 69.87 C 22.58 69.87 22.53 69.89 22.49 69.93 L 19.59 73.03 C 19.17 73.47 19.17 74.17 19.59 74.61 L 22.49 77.71 C 22.53 77.75 22.58 77.77 22.63 77.77 L 24.98 77.77 C 25.06 77.77 25.11 77.67 25.05 77.61 L 21.75 74.08 C 21.61 73.93 21.61 73.7 21.75 73.55 L 25.05 70.02 C 25.11 69.97 25.07 69.87 24.98 69.87 Z" fill="#83ACBC"/></g><path d=" M 24.01 28.28 L 1.58 0.33 C 1.05 -0.32 0 0.05 0 0.89 L 0.04 59.56 C 0.04 60.4 1.1 60.77 1.62 60.11 L 24.02 31.97 C 24.88 30.89 24.87 29.35 24.01 28.28 Z" fill="#83ACBC"/><path d=" M 49.4 0.34 L 26.64 28.69 C 26.18 29.27 26.59 30.13 27.33 30.13 L 47.97 30.22 C 49.6 30.23 50.93 28.9 50.94 27.27 L 50.98 0.9 C 50.98 0.05 49.92 -0.32 49.4 0.34 Z" fill="#FCD000"/><path d=" M 49.83 60.44 L 27.07 32.09 C 26.55 31.44 25.49 31.81 25.49 32.65 L 25.53 59.02 C 25.53 60.65 26.86 61.98 28.5 61.97 L 49.14 61.88 C 49.88 61.88 50.29 61.02 49.83 60.44 Z" fill="#FA8D69"/></g></svg>